<svg width="415" height="518" viewBox="0 0 415 518" fill="none" xmlns="http://www.w3.org/2000/svg">
<path d="M100.933 397.128C62.6807 330.872 83.8452 247.067 148.164 209.933C212.482 172.799 295.641 196.372 333.894 262.628C372.147 328.883 350.982 412.688 286.664 449.822C222.345 486.956 139.186 463.383 100.933 397.128Z" stroke="#407AFF"/>
<circle cx="68.3013" cy="348.301" r="49" transform="rotate(150 68.3013 348.301)" stroke="#407AFF" stroke-width="2"/>
<circle cx="68.4712" cy="348.471" r="44" transform="rotate(150 68.4712 348.471)" stroke="#407AFF" stroke-width="2"/>
<path d="M113.665 254.128C75.9373 188.781 96.8491 106.22 160.164 69.6651C223.478 33.1104 305.434 56.2806 343.162 121.628C380.89 186.975 359.978 269.535 296.664 306.09C233.349 342.645 151.393 319.475 113.665 254.128Z" stroke="#407AFF" stroke-width="5"/>
<circle cx="269.413" cy="246.325" r="6.5" transform="rotate(150 269.413 246.325)" fill="#407AFF" stroke="#407AFF"/>
<circle cx="218.562" cy="443.562" r="6.5" transform="rotate(150 218.562 443.562)" fill="#407AFF" stroke="#407AFF"/>
<circle cx="234.562" cy="109.562" r="6.5" transform="rotate(150 234.562 109.562)" fill="#407AFF" stroke="#407AFF"/>
<circle cx="242.392" cy="79.3924" r="11.5" transform="rotate(150 242.392 79.3924)" fill="#407AFF" stroke="#407AFF"/>
<circle cx="192.392" cy="424.392" r="11.5" transform="rotate(150 192.392 424.392)" fill="#407AFF" stroke="#407AFF"/>
<circle cx="255.415" cy="107.415" r="2" transform="rotate(150 255.415 107.415)" fill="#407AFF" stroke="#407AFF"/>
<circle cx="249.415" cy="259.415" r="2" transform="rotate(150 249.415 259.415)" fill="#407AFF" stroke="#407AFF"/>
</svg>
