<svg xmlns="http://www.w3.org/2000/svg" version="1.1" xmlns:xlink="http://www.w3.org/1999/xlink" xmlns:svgjs="http://svgjs.dev/svgjs" width="2000" height="1247" viewBox="0 0 2000 1247"><g transform="matrix(1,0,0,1,-1.2121212121212466,0.504858299595071)"><svg viewBox="0 0 396 247" data-background-color="#8b3c7f" preserveAspectRatio="xMidYMid meet" height="1247" width="2000" xmlns="http://www.w3.org/2000/svg" xmlns:xlink="http://www.w3.org/1999/xlink"><g id="tight-bounds" transform="matrix(1,0,0,1,0.2400000000000091,-0.09999999999999432)"><svg viewBox="0 0 395.52 247.2" height="247.2" width="395.52"><g><svg></svg></g><g><svg viewBox="0 0 395.52 247.2" height="247.2" width="395.52"><mask id="4d3fec23-7c07-483f-9238-122827c1aa73"><rect width="640" height="400" fill="white"></rect><g transform="matrix(1,0,0,1,39.55199999999999,93.44504883052934)"><svg viewBox="0 0 316.416 60.30990233894131" height="60.30990233894131" width="316.416"><g><svg viewBox="0 0 316.416 60.30990233894131" height="60.30990233894131" width="316.416"><g><svg viewBox="0 0 316.416 60.30990233894131" height="60.30990233894131" width="316.416"><g><svg viewBox="0 0 316.416 60.30990233894131" height="60.30990233894131" width="316.416"><g id="SvgjsG1038"><svg viewBox="0 0 316.416 60.30990233894131" height="60.30990233894131" width="316.416" id="SvgjsSvg1037"><g><svg viewBox="0 0 316.416 60.30990233894131" height="60.30990233894131" width="316.416"><g transform="matrix(1,0,0,1,0,0)"><svg width="316.416" viewBox="-1.2000000476837158 -42.599998474121094 244.69000244140625 47.44999694824219" height="60.30990233894131" data-palette-color="#ffffff"><path d="M21.35 0.85Q15.25 0.85 11.1-1.6 6.95-4.05 4.88-8.5 2.8-12.95 2.8-18.9L2.8-18.9Q2.8-24.5 4.85-28.95 6.9-33.4 11.08-36 15.25-38.6 21.35-38.6L21.35-38.6Q24-38.6 26.08-38.18 28.15-37.75 30.55-36.75L30.55-36.75 30.55-32.3Q26.3-34.35 21.45-34.35L21.45-34.35Q17.25-34.35 14.15-32.38 11.05-30.4 9.4-26.88 7.75-23.35 7.8-18.9L7.8-18.9Q7.8-14.3 9.4-10.8 11-7.3 14.05-5.35 17.1-3.4 21.35-3.4L21.35-3.4Q24-3.4 26.58-4.15 29.15-4.9 32-6.3L32-6.3 33.55-2.2Q30.65-0.7 27.45 0.08 24.25 0.85 21.35 0.85L21.35 0.85ZM65.6 0L61.5-11.05 45.7-11.05 41.65 0 36.65 0 50.9-38.35 56.3-38.35 70.6 0 65.6 0ZM47.35-15.4L59.85-15.4 53.6-32.3 47.35-15.4ZM88 0.85Q80.75 0.85 75.05-1.85L75.05-1.85 75.05-6.45Q80.8-3.4 88-3.4L88-3.4Q92.15-3.4 94.07-5.15 96-6.9 96-9.75L96-9.75Q96-12.45 94.22-13.8 92.45-15.15 89-16.15L89-16.15 85.6-17.1Q82.7-17.95 80.65-19.05 78.6-20.15 77.22-22.23 75.85-24.3 75.85-27.65L75.85-27.65Q75.85-33 78.97-35.8 82.1-38.6 87.85-38.6L87.85-38.6Q91.2-38.6 93.75-37.98 96.3-37.35 99.05-36.1L99.05-36.1 99.05-31.6Q93.95-34.35 87.85-34.35L87.85-34.35Q84.15-34.35 82.45-32.63 80.75-30.9 80.75-27.9L80.75-27.9Q80.8-25.15 82.42-23.85 84.05-22.55 87.5-21.55L87.5-21.55 90.95-20.6Q94-19.75 96.12-18.63 98.25-17.5 99.57-15.38 100.9-13.25 100.9-9.85L100.9-9.85Q100.85-4.9 97.42-2.02 94 0.85 88 0.85L88 0.85ZM133.34-37.9L138.19-37.9 138.19 0 133.34 0 133.34-16.85 114.24-16.85 114.24 0 109.39 0 109.39-37.9 114.24-37.9 114.24-21.25 133.34-21.25 133.34-37.9ZM153.74-4.2L172.09-4.2 172.09 0 148.89 0 148.89-37.9 171.84-37.9 171.84-33.7 153.74-33.7 153.74-21.15 169.34-21.15 169.34-16.95 153.74-16.95 153.74-4.2ZM185.29-4.2L203.64-4.2 203.64 0 180.44 0 180.44-37.9 203.39-37.9 203.39-33.7 185.29-33.7 185.29-21.15 200.89-21.15 200.89-16.95 185.29-16.95 185.29-4.2ZM233.94 0L224.19-16.05 216.84-16.05 216.84 0 211.99 0 211.99-37.9 225.24-37.9Q237.64-37.9 237.64-26.9L237.64-26.9Q237.64-22.55 235.56-19.88 233.49-17.2 229.34-16.4L229.34-16.4 239.49 0 233.94 0ZM216.84-33.65L216.84-20.3 225.24-20.3Q232.64-20.3 232.69-26.9L232.69-26.9Q232.69-30.4 230.84-32.02 228.99-33.65 225.24-33.65L225.24-33.65 216.84-33.65Z" opacity="1" transform="matrix(1,0,0,1,0,0)" fill="black" class="wordmark-text-0" id="SvgjsPath1036" stroke-width="7" stroke="black" stroke-linejoin="round"></path></svg></g></svg></g></svg></g></svg></g><g></g></svg></g></svg></g></svg></g></mask><g transform="matrix(1,0,0,1,39.55199999999999,93.44504883052934)"><svg viewBox="0 0 316.416 60.30990233894131" height="60.30990233894131" width="316.416"><g><svg viewBox="0 0 316.416 60.30990233894131" height="60.30990233894131" width="316.416"><g><svg viewBox="0 0 316.416 60.30990233894131" height="60.30990233894131" width="316.416"><g><svg viewBox="0 0 316.416 60.30990233894131" height="60.30990233894131" width="316.416"><g id="textblocktransform"><svg viewBox="0 0 316.416 60.30990233894131" height="60.30990233894131" width="316.416" id="textblock"><g><svg viewBox="0 0 316.416 60.30990233894131" height="60.30990233894131" width="316.416"><g transform="matrix(1,0,0,1,0,0)"><svg width="316.416" viewBox="-1.2000000476837158 -42.599998474121094 244.69000244140625 47.44999694824219" height="60.30990233894131" data-palette-color="#ffffff"><path d="M21.35 0.85Q15.25 0.85 11.1-1.6 6.95-4.05 4.88-8.5 2.8-12.95 2.8-18.9L2.8-18.9Q2.8-24.5 4.85-28.95 6.9-33.4 11.08-36 15.25-38.6 21.35-38.6L21.35-38.6Q24-38.6 26.08-38.18 28.15-37.75 30.55-36.75L30.55-36.75 30.55-32.3Q26.3-34.35 21.45-34.35L21.45-34.35Q17.25-34.35 14.15-32.38 11.05-30.4 9.4-26.88 7.75-23.35 7.8-18.9L7.8-18.9Q7.8-14.3 9.4-10.8 11-7.3 14.05-5.35 17.1-3.4 21.35-3.4L21.35-3.4Q24-3.4 26.58-4.15 29.15-4.9 32-6.3L32-6.3 33.55-2.2Q30.65-0.7 27.45 0.08 24.25 0.85 21.35 0.85L21.35 0.85ZM65.6 0L61.5-11.05 45.7-11.05 41.65 0 36.65 0 50.9-38.35 56.3-38.35 70.6 0 65.6 0ZM47.35-15.4L59.85-15.4 53.6-32.3 47.35-15.4ZM88 0.85Q80.75 0.85 75.05-1.85L75.05-1.85 75.05-6.45Q80.8-3.4 88-3.4L88-3.4Q92.15-3.4 94.07-5.15 96-6.9 96-9.75L96-9.75Q96-12.45 94.22-13.8 92.45-15.15 89-16.15L89-16.15 85.6-17.1Q82.7-17.95 80.65-19.05 78.6-20.15 77.22-22.23 75.85-24.3 75.85-27.65L75.85-27.65Q75.85-33 78.97-35.8 82.1-38.6 87.85-38.6L87.85-38.6Q91.2-38.6 93.75-37.98 96.3-37.35 99.05-36.1L99.05-36.1 99.05-31.6Q93.95-34.35 87.85-34.35L87.85-34.35Q84.15-34.35 82.45-32.63 80.75-30.9 80.75-27.9L80.75-27.9Q80.8-25.15 82.42-23.85 84.05-22.55 87.5-21.55L87.5-21.55 90.95-20.6Q94-19.75 96.12-18.63 98.25-17.5 99.57-15.38 100.9-13.25 100.9-9.85L100.9-9.85Q100.85-4.9 97.42-2.02 94 0.85 88 0.85L88 0.85ZM133.34-37.9L138.19-37.9 138.19 0 133.34 0 133.34-16.85 114.24-16.85 114.24 0 109.39 0 109.39-37.9 114.24-37.9 114.24-21.25 133.34-21.25 133.34-37.9ZM153.74-4.2L172.09-4.2 172.09 0 148.89 0 148.89-37.9 171.84-37.9 171.84-33.7 153.74-33.7 153.74-21.15 169.34-21.15 169.34-16.95 153.74-16.95 153.74-4.2ZM185.29-4.2L203.64-4.2 203.64 0 180.44 0 180.44-37.9 203.39-37.9 203.39-33.7 185.29-33.7 185.29-21.15 200.89-21.15 200.89-16.95 185.29-16.95 185.29-4.2ZM233.94 0L224.19-16.05 216.84-16.05 216.84 0 211.99 0 211.99-37.9 225.24-37.9Q237.64-37.9 237.64-26.9L237.64-26.9Q237.64-22.55 235.56-19.88 233.49-17.2 229.34-16.4L229.34-16.4 239.49 0 233.94 0ZM216.84-33.65L216.84-20.3 225.24-20.3Q232.64-20.3 232.69-26.9L232.69-26.9Q232.69-30.4 230.84-32.02 228.99-33.65 225.24-33.65L225.24-33.65 216.84-33.65Z" opacity="1" transform="matrix(1,0,0,1,0,0)" fill="#ffffff" class="wordmark-text-0" data-fill-palette-color="primary" id="text-0"></path></svg></g></svg></g></svg></g></svg></g><g></g></svg></g></svg></g></svg></g><g mask="url(#4d3fec23-7c07-483f-9238-122827c1aa73)"><g transform="matrix(2.4283479150220204, 0, 0, 2.4283479150220204, 107.2725445641149, 1)"><svg xmlns="http://www.w3.org/2000/svg" xmlns:xlink="http://www.w3.org/1999/xlink" version="1.1" x="0" y="0" viewBox="33.73505401611328 20.577999114990234 74.52593994140625 100.9739990234375" enable-background="new 0 0 141.73 141.73" xml:space="preserve" height="100.9739990234375" width="74.52593994140625" class="icon-none" data-fill-palette-color="accent" id="none"><path d="M107.948 109.25l-7.6-33.028c-1.534-6.671-8.318-12.143-15.163-12.294L74.526 99.162l-1.908-27.48 1.6-4.973-1.609-2.788h-3.22l-1.61 2.788 1.6 4.974-1.909 27.48L56.811 63.928c-6.845 0.151-13.629 5.623-15.164 12.294l-7.599 33.028c-1.557 6.766 2.85 12.302 9.792 12.302h54.316C105.099 121.552 109.505 116.016 107.948 109.25z" fill="#ffffff" data-fill-palette-color="accent"></path><g fill="#ffffff" data-fill-palette-color="accent"><path d="M70.998 20.578c-10.603 0-19.198 8.595-19.198 19.197 0 10.603 8.595 19.198 19.198 19.198s19.198-8.595 19.198-19.198C90.196 29.172 81.601 20.578 70.998 20.578zM77.483 38.99l-2.404-3.588-5.702 15.925-4.702-9.726-5.775 6.22-2.198-2.041 8.763-9.439 3.499 7.238 5.296-14.791 4.117 6.146 5.483-3.334 1.559 2.563L77.483 38.99z" fill="#ffffff" data-fill-palette-color="accent"></path></g></svg></g></g></svg></g><defs></defs></svg><rect width="395.52" height="247.2" fill="none" stroke="none" visibility="hidden"></rect></g></svg></g></svg>